<svg xmlns="http://www.w3.org/2000/svg" viewBox="0 0 772 250" width="772" height="250">
  <rect width="772" height="250" fill="#0b1017"/>

  <g transform="translate(50, 75) scale(1)">
    <g fill="#5e6c7a">
      <circle cx="20" cy="20" r="4"/><circle cx="32" cy="20" r="4"/><circle cx="44" cy="20" r="4"/><circle cx="56" cy="20" r="4"/><circle cx="68" cy="20" r="4"/><circle cx="80" cy="20" r="4"/>
      <circle cx="20" cy="32" r="4"/><circle cx="32" cy="32" r="4"/><circle cx="44" cy="32" r="4"/><circle cx="56" cy="32" r="4"/><circle cx="68" cy="32" r="4"/><circle cx="80" cy="32" r="4"/>
      <circle cx="20" cy="44" r="4"/><circle cx="32" cy="44" r="4"/><circle cx="44" cy="44" r="4"/><circle cx="56" cy="44" r="4"/><circle cx="68" cy="44" r="4"/><circle cx="80" cy="44" r="4"/>
      <circle cx="20" cy="56" r="4"/><circle cx="32" cy="56" r="4"/><circle cx="44" cy="56" r="4"/><circle cx="56" cy="56" r="4"/><circle cx="68" cy="56" r="4"/><circle cx="80" cy="56" r="4"/>
      <circle cx="20" cy="68" r="4"/><circle cx="32" cy="68" r="4"/><circle cx="44" cy="68" r="4"/><circle cx="56" cy="68" r="4"/><circle cx="68" cy="68" r="4"/><circle cx="80" cy="68" r="4"/>
      <circle cx="20" cy="80" r="4"/><circle cx="32" cy="80" r="4"/><circle cx="44" cy="80" r="4"/><circle cx="56" cy="80" r="4"/><circle cx="68" cy="80" r="4"/><circle cx="80" cy="80" r="4"/>
    </g>
    <g fill="#34d399">
      <circle cx="32" cy="32" r="4"/>
      <circle cx="44" cy="56" r="4"/>
      <circle cx="56" cy="20" r="4"/>
      <circle cx="68" cy="68" r="4"/>
      <circle cx="20" cy="80" r="4"/>
    </g>
  </g>

  <text x="180" y="120" font-family="Cormorant Garamond, Georgia, serif" font-style="italic" font-weight="500" font-size="32" fill="#edf2f7" letter-spacing="-0.5">Inhale: MCP Abilities</text>
  <text x="180" y="150" font-family="DM Sans, system-ui, sans-serif" font-weight="400" font-size="13" fill="#8899aa">Decide which registered abilities are visible to the default MCP server.</text>

  <text x="722" y="120" text-anchor="end" font-family="JetBrains Mono, Menlo, monospace" font-weight="500" font-size="11" fill="#edf2f7">by respira</text>
  <text x="722" y="138" text-anchor="end" font-family="JetBrains Mono, Menlo, monospace" font-weight="400" font-size="10" fill="#34d399">respira.press</text>

  <rect x="0" y="248" width="772" height="2" fill="#34d399"/>
</svg>
