<svg xmlns="http://www.w3.org/2000/svg" viewBox="0 0 100 100" width="256" height="256" aria-label="Inhale plugin icon">
  <rect width="100" height="100" fill="#fafaf9"/>
  <g fill="#a8a29e">
    <circle cx="20" cy="20" r="4"/><circle cx="32" cy="20" r="4"/><circle cx="44" cy="20" r="4"/><circle cx="56" cy="20" r="4"/><circle cx="68" cy="20" r="4"/><circle cx="80" cy="20" r="4"/>
    <circle cx="20" cy="32" r="4"/><circle cx="32" cy="32" r="4"/><circle cx="44" cy="32" r="4"/><circle cx="56" cy="32" r="4"/><circle cx="68" cy="32" r="4"/><circle cx="80" cy="32" r="4"/>
    <circle cx="20" cy="44" r="4"/><circle cx="32" cy="44" r="4"/><circle cx="44" cy="44" r="4"/><circle cx="56" cy="44" r="4"/><circle cx="68" cy="44" r="4"/><circle cx="80" cy="44" r="4"/>
    <circle cx="20" cy="56" r="4"/><circle cx="32" cy="56" r="4"/><circle cx="44" cy="56" r="4"/><circle cx="56" cy="56" r="4"/><circle cx="68" cy="56" r="4"/><circle cx="80" cy="56" r="4"/>
    <circle cx="20" cy="68" r="4"/><circle cx="32" cy="68" r="4"/><circle cx="44" cy="68" r="4"/><circle cx="56" cy="68" r="4"/><circle cx="68" cy="68" r="4"/><circle cx="80" cy="68" r="4"/>
    <circle cx="20" cy="80" r="4"/><circle cx="32" cy="80" r="4"/><circle cx="44" cy="80" r="4"/><circle cx="56" cy="80" r="4"/><circle cx="68" cy="80" r="4"/><circle cx="80" cy="80" r="4"/>
  </g>
  <g fill="#059669">
    <circle cx="32" cy="32" r="4"/>
    <circle cx="44" cy="56" r="4"/>
    <circle cx="56" cy="20" r="4"/>
    <circle cx="68" cy="68" r="4"/>
    <circle cx="20" cy="80" r="4"/>
  </g>
</svg>
